<svg width="190" height="46" viewBox="0 0 190 46" fill="none" xmlns="http://www.w3.org/2000/svg">
<g clip-path="url(#clip0_1_176)">
<mask id="mask0_1_176" style="mask-type:luminance" maskUnits="userSpaceOnUse" x="0" y="0" width="190" height="46">
<path d="M190 0H0V46H190V0Z" fill="white"/>
</mask>
<g mask="url(#mask0_1_176)">
<path d="M44.2576 38.1644C44.6459 38.427 45.0588 38.6511 45.4906 38.8343C46.1514 39.1271 46.8318 39.3726 47.5275 39.5694C48.412 39.8211 49.3109 40.0212 50.219 40.1684C51.2695 40.3409 52.3326 40.4257 53.3973 40.4218C54.3686 40.4609 55.3401 40.3441 56.2739 40.0763C56.552 40.0127 56.7995 39.8572 56.9769 39.6354C57.154 39.4137 57.2498 39.1386 57.2486 38.8555C57.2681 38.5853 57.1996 38.3162 57.0533 38.0878C56.9071 37.8596 56.691 37.6837 56.4366 37.5866C55.621 37.2908 54.7715 37.0972 53.9076 37.0105L51.4939 36.7344C50.3209 36.587 49.1589 36.3639 48.0153 36.0659C46.9671 35.8023 45.9713 35.3657 45.0689 34.7741C44.2281 34.216 43.5356 33.4645 43.0508 32.583C42.5224 31.5438 42.2675 30.3887 42.3103 29.225C42.299 28.1416 42.5117 27.0673 42.935 26.0686C43.3724 25.0757 44.05 24.2054 44.9073 23.5345C45.9289 22.7498 47.0953 22.1709 48.3404 21.83C49.9563 21.3863 51.6287 21.1768 53.3049 21.2083C54.9913 21.188 56.6761 21.3113 58.3412 21.577C59.6069 21.7771 60.8348 22.1653 61.984 22.7288C62.5299 23.0023 63.012 23.3866 63.3989 23.8567C63.7619 24.3241 63.9508 24.9019 63.9327 25.492C63.9412 25.9475 63.8377 26.3983 63.631 26.8053C63.4467 27.1657 63.2123 27.4992 62.9353 27.7957C62.7126 28.0374 62.4637 28.2536 62.1927 28.4406C61.9606 28.5938 61.8137 28.6858 61.752 28.7167C61.5128 28.5255 61.2567 28.3563 60.9866 28.2114C60.4559 27.9169 59.8962 27.6777 59.3159 27.4974C58.4955 27.2359 57.6586 27.0282 56.8107 26.8757C55.716 26.6812 54.6051 26.5889 53.4932 26.5995C52.5013 26.5231 51.5056 26.689 50.5931 27.0829C50.3532 27.1996 50.1506 27.3801 50.0071 27.6039C49.864 27.8277 49.7857 28.0865 49.7809 28.3517C49.7701 28.5906 49.8363 28.8264 49.9698 29.0255C50.1034 29.2243 50.2973 29.3758 50.5233 29.4577C51.2407 29.73 51.9884 29.9156 52.7506 30.0104L56.9732 30.6095C58.0015 30.7581 59.0172 30.9814 60.0125 31.2777C60.9453 31.5496 61.8244 31.9788 62.6109 32.5466C63.3726 33.1028 63.9927 33.8286 64.4219 34.6656C64.8962 35.641 65.1268 36.7153 65.0949 37.7978C65.1434 38.9698 64.8973 40.135 64.3789 41.1886C63.8604 42.2423 63.086 43.1512 62.1252 43.8334C60.1455 45.2766 57.4079 45.9982 53.9128 45.9988C51.0349 46.0294 48.17 45.6164 45.4198 44.775C44.56 44.5193 43.7277 44.18 42.935 43.7614C42.479 43.5179 42.0372 43.2488 41.6123 42.955L44.2576 38.1644ZM90.3322 43.3244C89.9931 43.5395 89.5433 43.8007 88.9836 44.1075C88.3356 44.454 87.6603 44.7469 86.9637 44.983C86.0767 45.2852 85.169 45.5241 84.2474 45.6969C83.1309 45.9053 81.9965 46.0057 80.8603 45.9966C79.214 45.9989 77.5782 45.7343 76.0179 45.2129C74.5057 44.7193 73.109 43.9281 71.9118 42.8867C70.7026 41.811 69.7382 40.4917 69.0826 39.0167C68.34 37.3094 67.9767 35.4632 68.0177 33.6039C67.9866 31.7922 68.3426 29.9945 69.062 28.3293C69.7099 26.8433 70.6752 25.515 71.8912 24.4361C73.112 23.3738 74.5308 22.5598 76.0669 22.0393C77.7013 21.4799 79.4193 21.1996 81.1479 21.2104C82.7079 21.2 84.2616 21.4093 85.7626 21.8321C86.9614 22.1182 88.07 22.6964 88.9877 23.514C89.3128 23.8315 89.5866 24.1965 89.7999 24.5967C90.0099 25.0189 90.1136 25.4851 90.1017 25.9559C90.1079 26.4458 90.0133 26.9318 89.8233 27.384C89.6472 27.7983 89.4129 28.1861 89.1276 28.5357C88.8653 28.8569 88.5782 29.1573 88.2694 29.4343C88.0346 29.6518 87.7782 29.8448 87.5041 30.0104C86.8192 29.3712 86.0327 28.8491 85.1761 28.4652C84.0704 27.9646 82.8647 27.7207 81.6497 27.7511C80.8692 27.7474 80.0932 27.8719 79.3532 28.1196C78.6483 28.3526 78.0002 28.7295 77.4506 29.2257C76.8907 29.7418 76.4473 30.3697 76.1493 31.0684C75.8114 31.8704 75.6457 32.7332 75.6623 33.6025C75.6386 34.4947 75.8045 35.3814 76.1493 36.2055C76.445 36.887 76.8907 37.4939 77.4543 37.9811C78.0149 38.4516 78.6712 38.7966 79.3781 38.9928C80.1473 39.2116 80.9439 39.3203 81.7442 39.3157C82.4074 39.3206 83.0689 39.2513 83.7167 39.1085C84.2618 38.9878 84.797 38.8263 85.3175 38.6248C85.7143 38.4714 86.1018 38.2945 86.4773 38.0949C86.6936 37.988 86.8962 37.8561 87.0809 37.7016L90.3322 43.3244ZM93.4411 14.6711C93.391 14.194 93.4622 13.712 93.6483 13.2692C93.8343 12.8265 94.1292 12.4372 94.506 12.137C95.3505 11.6089 96.3383 11.3515 97.3352 11.3997C98.0961 11.3897 98.8543 11.4906 99.5858 11.6993C100.248 11.8985 100.674 12.0297 100.864 12.0926V23.2378C101.585 22.6354 102.4 22.1531 103.277 21.8095C104.537 21.3378 105.879 21.1186 107.225 21.1646C108.531 21.1517 109.831 21.3461 111.076 21.7405C112.224 22.109 113.278 22.7228 114.161 23.5386C115.075 24.4 115.781 25.4552 116.226 26.6253C116.749 28.0328 117.001 29.5255 116.968 31.0252V45.3509H109.499V32.5416C109.499 30.9753 109.151 29.839 108.455 29.1327C107.538 28.4154 106.398 28.0411 105.231 28.0747C104.065 28.1085 102.948 28.548 102.075 29.3167C101.301 30.1463 100.915 31.436 100.915 33.1867V45.3509H93.4463L93.4411 14.6711ZM121.606 33.6046C121.587 31.9081 121.935 30.2275 122.624 28.6752C123.286 27.1964 124.241 25.8647 125.432 24.7597C126.64 23.6426 128.049 22.7597 129.584 22.1564C132.861 20.8971 136.492 20.8971 139.769 22.1564C141.313 22.7558 142.73 23.6389 143.945 24.7597C145.135 25.8647 146.09 27.1964 146.752 28.6752C147.423 30.233 147.77 31.9098 147.77 33.6046C147.77 35.2992 147.423 36.976 146.752 38.5338C146.09 40.0127 145.135 41.3443 143.945 42.4497C142.73 43.5701 141.313 44.4533 139.769 45.0528C136.492 46.3121 132.861 46.3121 129.584 45.0528C128.049 44.4494 126.64 43.5666 125.432 42.4497C124.241 41.3443 123.286 40.0127 122.624 38.5338C121.935 36.9813 121.587 35.3015 121.606 33.6046ZM134.691 39.3622C135.433 39.3686 136.168 39.2192 136.848 38.9245C137.501 38.6411 138.092 38.234 138.588 37.7262C139.091 37.2053 139.478 36.5854 139.724 35.9062C140.252 34.4151 140.252 32.7899 139.724 31.2988C139.478 30.6195 139.091 29.9994 138.588 29.4787C138.092 28.971 137.501 28.5639 136.848 28.2804C136.162 27.9915 135.424 27.8427 134.679 27.8427C133.934 27.8427 133.196 27.9915 132.51 28.2804C131.866 28.5683 131.284 28.9749 130.793 29.4787C130.29 29.9994 129.903 30.6195 129.657 31.2988C129.129 32.7899 129.129 34.4151 129.657 35.9062C129.903 36.5854 130.29 37.2053 130.793 37.7262C131.284 38.2301 131.866 38.6366 132.51 38.9245C133.197 39.2242 133.94 39.3733 134.691 39.3622ZM151.487 33.6032C151.469 31.9067 151.816 30.2261 152.506 28.6737C153.168 27.195 154.122 25.8635 155.313 24.7583C156.521 23.6412 157.93 22.7583 159.465 22.155C162.742 20.8957 166.374 20.8957 169.65 22.155C171.194 22.7544 172.611 23.6375 173.826 24.7583C175.016 25.8635 175.971 27.195 176.633 28.6737C177.305 30.2316 177.652 31.9084 177.652 33.6032C177.652 35.2977 177.305 36.9748 176.633 38.5324C175.971 40.0113 175.016 41.3429 173.826 42.4483C172.611 43.5689 171.194 44.4521 169.65 45.0513C166.374 46.3107 162.742 46.3107 159.465 45.0513C157.93 44.448 156.521 43.5652 155.313 42.4483C154.122 41.3429 153.168 40.0113 152.506 38.5324C151.815 36.9806 151.466 35.2999 151.484 33.6032H151.487ZM164.572 39.3622C165.314 39.3686 166.049 39.2192 166.729 38.9245C167.382 38.6411 167.973 38.2341 168.469 37.7262C168.973 37.2053 169.36 36.5854 169.605 35.9062C170.133 34.4151 170.133 32.7899 169.605 31.2988C169.36 30.6195 168.973 29.9994 168.469 29.4787C167.973 28.971 167.382 28.5639 166.729 28.2804C166.043 27.9915 165.305 27.8427 164.56 27.8427C163.815 27.8427 163.077 27.9915 162.391 28.2804C161.747 28.5683 161.165 28.9749 160.674 29.4787C160.171 29.9994 159.784 30.6195 159.538 31.2988C159.01 32.7899 159.01 34.4151 159.538 35.9062C159.784 36.5854 160.171 37.2053 160.674 37.7262C161.165 38.2301 161.747 38.6366 162.391 38.9245C163.078 39.2242 163.822 39.3733 164.572 39.3622ZM182.528 14.6683C182.478 14.1912 182.549 13.7092 182.736 13.2664C182.92 12.8237 183.217 12.4344 183.593 12.1342C184.437 11.6061 185.426 11.3487 186.422 11.3969C187.189 11.3883 187.954 11.4892 188.693 11.6964C189.373 11.8957 189.806 12.0268 189.995 12.0898V45.3509H182.53L182.528 14.6683Z" fill="#1967D2"/>
<path d="M0.00235391 30.2869C-0.0287564 28.9299 0.248857 27.5834 0.814519 26.3479C1.33631 25.2515 2.09671 24.2836 3.04089 23.5143C4.02656 22.7242 5.16084 22.1368 6.37759 21.7865C7.74136 21.3914 9.15624 21.1973 10.5768 21.2106C12.2774 21.1814 13.9663 21.4949 15.5414 22.132C16.9148 22.687 18.1269 23.5739 19.0677 24.7119C19.9971 23.5821 21.1916 22.6962 22.5464 22.132C24.1044 21.4916 25.7789 21.1779 27.4648 21.2106C28.8699 21.1993 30.269 21.3934 31.6172 21.7865C32.834 22.1368 33.9681 22.7242 34.9538 23.5143C35.8983 24.2834 36.659 25.2508 37.181 26.3472C37.7484 27.5825 38.0277 28.9294 37.998 30.2869V45.3505H30.5296V32.4059C30.5296 30.8396 30.2047 29.7185 29.5548 29.0428C29.195 28.6937 28.7653 28.4234 28.2938 28.2491C27.8226 28.075 27.3195 28.0007 26.8173 28.0313C26.2692 28.0124 25.7235 28.1095 25.216 28.316C24.7089 28.5228 24.2515 28.834 23.8747 29.2296C23.1173 30.0283 22.7387 31.303 22.7387 33.0535V45.3505H15.266V33.0508C15.266 31.3002 14.8947 30.0256 14.1521 29.2268C13.7804 28.8298 13.3268 28.5172 12.8222 28.3102C12.3176 28.1035 11.774 28.0073 11.2286 28.0283C10.723 27.9995 10.217 28.0745 9.74192 28.2484C9.26689 28.4225 8.83308 28.6918 8.46763 29.0398C7.80502 29.7142 7.47254 30.8352 7.47016 32.4029V45.3505H0.00235391V30.2869Z" fill="#FF7F00"/>
<path d="M18.8402 21.0765C20.6603 21.0765 22.1357 19.6114 22.1357 17.8043C22.1357 15.9972 20.6603 14.5322 18.8402 14.5322C17.0202 14.5322 15.5448 15.9972 15.5448 17.8043C15.5448 19.6114 17.0202 21.0765 18.8402 21.0765Z" fill="#FE7B37"/>
<path d="M26.7161 9.92105C26.6673 9.87102 26.6154 9.82663 26.5657 9.78009L26.4175 9.6391C26.3917 9.61365 26.3642 9.59008 26.3351 9.56862C24.2905 7.71816 21.606 6.72157 18.8402 6.78615C16.0744 6.85076 13.4401 7.97155 11.4853 9.91542L11.0104 10.3941L10.3501 11.0489C9.9641 11.4345 9.74777 11.9564 9.74858 12.5001C9.7494 13.0438 9.9673 13.565 10.3545 13.9494C10.7417 14.3339 11.2666 14.5502 11.8143 14.5511C12.3618 14.5519 12.8874 14.3371 13.2758 13.9538L14.4117 12.8259C15.6566 11.5936 17.3429 10.9015 19.1009 10.9015C20.8588 10.9015 22.545 11.5936 23.79 12.8259L24.6114 13.6161C24.8989 13.8989 25.2643 14.0908 25.6614 14.1679C26.0588 14.245 26.4702 14.2038 26.8436 14.0495C27.2174 13.8951 27.5367 13.6345 27.7617 13.3004C27.9866 12.9663 28.1069 12.5736 28.1077 12.1718C28.1095 11.9054 28.0575 11.6414 27.955 11.3952C27.8528 11.149 27.7018 10.9256 27.5115 10.738L26.7161 9.92105Z" fill="#FE7B37"/>
<path d="M32.3298 5.87588L31.6455 5.19637C31.6433 5.19264 31.6396 5.18988 31.6355 5.18862L31.0954 4.65076C31.0014 4.55913 30.8984 4.47718 30.7878 4.40618C27.4108 1.47236 23.0488 -0.0980801 18.5626 0.00474843C14.0765 0.107577 9.79217 1.8762 6.55496 4.96163C6.52232 4.99123 6.48397 5.01168 6.45346 5.0434L5.21743 6.27203C4.86366 6.6235 4.66497 7.1001 4.66512 7.59702C4.66522 8.09393 4.86417 8.57045 5.21816 8.92172C5.57213 9.273 6.05215 9.47027 6.55261 9.47014C7.05308 9.47002 7.533 9.2725 7.88679 8.92101L9.12351 7.6952C9.13038 7.68552 9.13825 7.67655 9.14693 7.66843C11.767 5.16093 15.2587 3.75105 18.8977 3.73122C22.5367 3.7114 26.0438 5.08316 28.6914 7.56199L29.6641 8.52909C30.0182 8.88037 30.498 9.07764 30.9984 9.07753C31.499 9.07739 31.9788 8.87986 32.3327 8.5284C32.6864 8.17694 32.8853 7.70031 32.8851 7.20339C32.8847 6.70648 32.686 6.22997 32.332 5.87871L32.3298 5.87588Z" fill="#FE7B37"/>
</g>
</g>
<defs>
<clipPath id="clip0_1_176">
<rect width="190" height="46" fill="white"/>
</clipPath>
</defs>
</svg>
